<svg width="62.000000" height="62.000000" viewBox="0 0 62 62" fill="none" xmlns="http://www.w3.org/2000/svg" xmlns:xlink="http://www.w3.org/1999/xlink">
	<desc>
			Created with Pixso.
	</desc>
	<defs/>
	<rect width="62.000000" height="62.000000" fill="#FFFFFF" fill-opacity="0"/>
	<path d="M31 0C13.8792 0 0 13.8792 0 31C0 48.1208 13.8792 62 31 62C48.1208 62 62 48.1208 62 31C62 13.8792 48.1208 0 31 0ZM30.9966 14.4667L31.0017 14.4667C35.4888 14.4667 36.0503 14.4863 37.8132 14.5666C39.5735 14.6472 40.7754 14.9258 41.8296 15.3347C42.918 15.7567 43.8376 16.3215 44.7573 17.2412C45.677 18.1602 46.2419 19.0826 46.6655 20.17C47.072 21.2213 47.3511 22.4227 47.4336 24.1829C47.5129 25.9464 47.5337 26.5099 47.5337 31.0002C47.5337 35.4904 47.5129 36.0526 47.4336 37.8161C47.3511 39.5756 47.072 40.7773 46.6655 41.8289C46.2419 42.916 45.677 43.8384 44.7573 44.7574C43.8386 45.6771 42.9177 46.2434 41.8306 46.6656C40.7786 47.0745 39.5757 47.3532 37.8157 47.4338C36.052 47.514 35.4902 47.5337 30.9998 47.5337C26.5098 47.5337 25.9468 47.514 24.1831 47.4338C22.4233 47.3532 21.2214 47.0745 20.1697 46.6656C19.0828 46.2434 18.1604 45.6771 17.2417 44.7574C16.3225 43.8384 15.7576 42.916 15.335 41.8286C14.9265 40.7773 14.6477 39.5759 14.5669 37.8158C14.4868 36.0522 14.4668 35.4904 14.4668 31.0002C14.4668 26.5099 14.4875 25.9461 14.5664 24.1825C14.6458 22.4231 14.9248 21.2213 15.3345 20.1697C15.7583 19.0826 16.3232 18.1602 17.2429 17.2412C18.1619 16.3219 19.0842 15.757 20.1716 15.3347C21.2229 14.9258 22.4243 14.6472 24.1846 14.5666C25.9473 14.4863 26.5112 14.4667 30.9966 14.4667Z" clip-rule="evenodd" fill="#2B2A29" fill-opacity="1.000000" fill-rule="evenodd"/>
	<path d="M30.4509 17.446C30.1167 17.4459 29.8069 17.4457 29.5188 17.4462L29.5188 17.442C26.4375 17.4454 25.8464 17.4661 24.321 17.535C22.709 17.6091 21.8337 17.8777 21.251 18.1051C20.4795 18.4055 19.9285 18.7637 19.3496 19.3423C18.771 19.921 18.4121 20.4721 18.1125 21.2437C17.8862 21.8265 17.6167 22.7014 17.543 24.3134C17.4639 26.0563 17.448 26.5771 17.448 30.9922C17.448 35.4074 17.4639 35.931 17.543 37.6738C17.6165 39.2859 17.8862 40.1608 18.1125 40.7429C18.4128 41.5148 18.771 42.0645 19.3496 42.6432C19.9285 43.2219 20.4795 43.5801 21.251 43.8798C21.8342 44.1061 22.709 44.3754 24.321 44.4498C26.064 44.5291 26.5872 44.5463 31.002 44.5463C35.4165 44.5463 35.9399 44.5291 37.6829 44.4498C39.2949 44.3761 40.1707 44.1075 40.7527 43.8801C41.5247 43.5804 42.074 43.2222 42.6526 42.6436C43.2312 42.0652 43.5903 41.5158 43.8899 40.7443C44.1162 40.1622 44.3855 39.2872 44.4592 37.6752C44.5386 35.9323 44.5557 35.4088 44.5557 30.9964C44.5557 26.584 44.5386 26.0604 44.4592 24.3176C44.386 22.7055 44.1162 21.8306 43.8899 21.2485C43.5896 20.4769 43.2312 19.9258 42.6526 19.3472C42.0742 18.7685 41.5242 18.4103 40.7527 18.1106C40.1699 17.8843 39.2949 17.6149 37.6829 17.5412C35.9397 17.462 35.4165 17.4462 31.002 17.4462C30.8113 17.4462 30.6277 17.446 30.4509 17.446ZM39.8279 20.1913C38.7324 20.1913 37.8438 21.079 37.8438 22.1747C37.8438 23.27 38.7324 24.1587 39.8279 24.1587C40.9231 24.1587 41.8118 23.27 41.8118 22.1747C41.8118 21.0793 40.9231 20.1907 39.8279 20.1907L39.8279 20.1913ZM22.5115 31.0001C22.5115 26.3113 26.313 22.5097 31.0017 22.5095C35.6907 22.5095 39.4912 26.3112 39.4912 31.0001C39.4912 35.6891 35.6909 39.4891 31.002 39.4891C26.313 39.4891 22.5115 35.6891 22.5115 31.0001Z" clip-rule="evenodd" fill="#2B2A29" fill-opacity="1.000000" fill-rule="evenodd"/>
	<path d="M31 25.48C34.04 25.48 36.51 27.95 36.51 31C36.51 34.04 34.04 36.51 31 36.51C27.95 36.51 25.49 34.04 25.49 31C25.49 27.95 27.95 25.48 31 25.48Z" fill="#2B2A29" fill-opacity="1.000000" fill-rule="nonzero"/>
</svg>
