<svg width="62.000000" height="62.000000" viewBox="0 0 62 62" fill="none" xmlns="http://www.w3.org/2000/svg" xmlns:xlink="http://www.w3.org/1999/xlink">
	<desc>
			Created with Pixso.
	</desc>
	<defs/>
	<rect width="62.000000" height="62.000000" fill="#FFFFFF" fill-opacity="0"/>
	<path d="M31 0C13.8792 0 0 13.8792 0 31C0 48.1208 13.8792 62 31 62C48.1208 62 62 48.1208 62 31C62 13.8792 48.1208 0 31 0ZM43.9189 20.343C45.3418 20.7334 46.4624 21.8838 46.8425 23.3447C47.5337 25.9924 47.5337 31.5168 47.5337 31.5168C47.5337 31.5168 47.5337 37.041 46.8425 39.6889C46.4624 41.1498 45.3418 42.3002 43.9189 42.6907C41.3406 43.4001 31.0002 43.4001 31.0002 43.4001C31.0002 43.4001 20.6599 43.4001 18.0813 42.6907C16.6584 42.3002 15.5381 41.1498 15.1577 39.6889C14.4668 37.041 14.4668 31.5168 14.4668 31.5168C14.4668 31.5168 14.4668 25.9924 15.1577 23.3447C15.5381 21.8838 16.6584 20.7334 18.0813 20.343C20.6599 19.6334 31.0002 19.6334 31.0002 19.6334C31.0002 19.6334 41.3406 19.6334 43.9189 20.343Z" clip-rule="evenodd" fill="#2B2A29" fill-opacity="1.000000" fill-rule="evenodd"/>
	<path d="M27.9 37.2L27.9 26.86L36.16 32.03L27.9 37.2Z" fill="#2B2A29" fill-opacity="1.000000" fill-rule="nonzero"/>
</svg>
